<?xml version="1.0" encoding="UTF-8"?>
<svg id="Layer_1" data-name="Layer 1" xmlns="http://www.w3.org/2000/svg" version="1.1" viewBox="0 0 846.2 183">
  <defs>
    <style>
      .cls-1 {
        fill: none;
      }
      .cls-1, .cls-2 {
        stroke-width: 0px;
      }
      .cls-2 {
        fill: #fd4c00;
      }
    </style>
  </defs>
  <path class="cls-2" d="M210,36.9h8.6c5.6,0,10.2,4.6,10.2,10.2v.8h.2c1.6-8.7,13.1-13.1,34.8-13.1s22.7,2.7,29.3,8.1,9.9,12.4,9.9,20.8v42c0,6.1-.9,11.3-2.6,15.8-1.8,4.5-4,8-6.9,10.6-2.5,2.4-6,4.3-10.5,5.7-4.4,1.4-8.8,2.3-13.2,2.8-3.9.4-8.7.6-14.4.6s-11.9-.7-17-2.2-8.3-3.6-9.6-6.4v40.3c0,5.6-4.6,10.2-10.2,10.2h-8.8V36.9h0ZM272.8,126.7c3.9-1.1,6.6-3,8.3-5.8,1.7-2.8,2.5-7.1,2.5-12.9v-37.6c0-6.3-.9-11-2.5-14.1s-4.5-5.2-8.3-6.2c-3.9-1.1-9.5-1.6-17-1.6s-13,.5-16.7,1.6c-3.7,1.1-6.3,3.1-7.8,6.1s-2.3,7.8-2.3,14.2v37.6c0,5.8.8,10.1,2.4,12.9,1.6,2.8,4.3,4.8,8.1,5.8,3.8,1.1,9.3,1.6,16.5,1.6s12.9-.5,16.8-1.6h0Z"/>
  <path class="cls-2" d="M332,36.9h7.8c5.6,0,10.2,4.6,10.2,10.2v6.5c0-3.2,1.4-6.3,4.2-9.2s6.4-5.2,10.8-7c4.4-1.8,8.6-2.6,12.9-2.6h9.3v11.2c0,2.8-2.3,5.1-5.1,5.1h-5.5c-9,0-15.5,1.2-19.5,3.5-4,2.3-6,6.5-6,12.6v61.8c0,5.6-4.5,10.2-10.2,10.2h-8.8V36.9h0Z"/>
  <path class="cls-2" d="M421,0h8.8c2.8,0,5.1,2.3,5.1,5.1v9.7c0,2.8-2.3,5.1-5.1,5.1h-8.8c-2.8,0-5.1-2.3-5.1-5.1V5.1c0-2.8,2.3-5.1,5.1-5.1ZM416,36.9h8.8c5.6,0,10.2,4.6,10.2,10.2v81.8c0,5.6-4.5,10.2-10.2,10.2h-8.8V36.9Z"/>
  <path class="cls-2" d="M463.9,36.9h8.8c5.6,0,10.2,4.6,10.2,10.2v2.3c2-9.7,13.4-14.6,34.4-14.6s27.7,4.6,31.9,13.9c1.3-4.5,5.1-7.9,11.5-10.3,6.4-2.4,14.2-3.6,23.5-3.6s21.6,2.4,26.8,7.1c5.2,4.7,7.8,12.1,7.8,22.3v64.8c0,5.6-4.5,10.2-10.2,10.2h-8.8v-73.7c0-2.7-.2-4.8-.6-6.5-.4-1.7-1.3-3.4-2.5-5.1-2.8-3.5-9.1-5.3-18.8-5.3s-13,.5-16.7,1.5c-3.7,1-6.2,2.7-7.5,5.1-1.3,2.4-2,5.8-2,10.3v63.5c0,5.6-4.5,10.2-10.2,10.2h-8.8v-73.7c0-2.7-.2-4.8-.6-6.5-.4-1.7-1.3-3.4-2.5-5.1-2.8-3.5-9-5.3-18.6-5.3s-13.6.5-17.5,1.5-6.7,2.6-8.2,5c-1.5,2.3-2.3,5.8-2.3,10.4v63.5c0,5.6-4.5,10.2-10.2,10.2h-8.8V36.9h0,0Z"/>
  <path class="cls-2" d="M655.6,134.1c-5.3-4.7-7.9-12.1-7.9-22.3V36.9h8.8c5.6,0,10.2,4.6,10.2,10.2v63.7c0,2.7.2,4.8.7,6.4.5,1.6,1.4,3.3,2.6,5,2.5,3.7,8.7,5.5,18.6,5.5s17.7-1,22-3c4.1-2,6.1-5.6,6.1-10.8V36.9h8.8c5.6,0,10.2,4.6,10.2,10.2v81.8c0,5.6-4.5,10.2-10.2,10.2h-8.8v-12.4c-1.8,9.7-13,14.6-33.5,14.6s-22.3-2.4-27.5-7.1h0Z"/>
  <path class="cls-2" d="M766.7,138.7v-8.6c0-3.1,2.8-5.5,5.9-5,13.4,2.1,23.3,3.1,29.6,3.1,9,0,15.5-.9,19.4-2.6,3.9-1.8,5.9-5,5.9-9.8v-10.3c0-4.4-1.5-7.4-4.4-9.3s-7.7-2.7-14.3-2.7h-11.6c-10.6,0-18.6-2.2-24.2-6.5-5.6-4.4-8.3-10.5-8.3-18.4v-9.5c0-16,15.2-24.1,45.6-24.1s12.6.6,31,1.7v7.8c0,3.1-2.7,5.5-5.8,5-10-1.4-18.7-2.1-26.1-2.1s-16.8,1-20.5,3c-3.7,2-5.5,5.3-5.5,9.9v8.7c0,6.9,6.3,10.3,18.8,10.3h11.8c21.5,0,32.3,8,32.3,24.1v8.9c0,10.6-3.7,18.1-11,22.5s-18.5,6.6-33.5,6.6-22.4-.8-34.9-2.5h-.1s0,0,0,0Z"/>
  <path class="cls-1" d="M157.5,181h22.5v-22.5c0,12.4-10.1,22.5-22.5,22.5Z"/>
  <path class="cls-1" d="M157.5,1c12.4,0,22.5,10.1,22.5,22.5V1h-22.5Z"/>
  <g>
    <path class="cls-1" d="M0,158.5v22.5h22.5c-12.4,0-22.5-10.1-22.5-22.5Z"/>
    <path class="cls-1" d="M22.5,1H0v22.5C0,11.1,10.1,1,22.5,1Z"/>
    <path class="cls-2" d="M157.5,1H22.5C10.1,1,0,11.1,0,23.5v135c0,12.4,10.1,22.5,22.5,22.5h135c12.4,0,22.5-10.1,22.5-22.5V23.5c0-12.4-10.1-22.5-22.5-22.5ZM49.5,145v6.8c0,3.7-3,6.8-6.8,6.8h-13.5c-3.7,0-6.8-3-6.8-6.8v-13.5c0-3.7,3-6.8,6.8-6.8h6.8c6.2,0,10.3-2.8,12.2-4.4,0,0,15.9-15.5,17.7-17.7,1.2-1.4,3.6-3.5,3.6-18.6s9.1-20.2,20.2-20.2,20.2,9.1,20.2,20.2-9.5,20.2-20.2,20.2-14.4.4-17.9,3.8h0s-16.9,16.9-16.9,16.9c0,0-5.5,5-5.5,13.2ZM157.5,145c0,7.5-6.1,13.5-13.5,13.5H63v-13.5c0-7.5,6-13.5,13.5-13.5h54V50.5H49.5c-7.5,0-13.5-6-13.5-13.5v-13.5h108c7.5,0,13.5,6.1,13.5,13.5v108Z"/>
  </g>
</svg>